<mxfile host="app.diagrams.net" modified="2022-05-30T15:09:05.770Z" agent="5.0 (Windows NT 10.0; Win64; x64) AppleWebKit/537.36 (KHTML, like Gecko) Chrome/101.0.4951.67 Safari/537.36" etag="POWm5or34M1T9ILV0awu" version="18.1.3" type="github">
  <diagram id="LxfuXwtLjlhNPQG8wC1B" name="Page-1">
    <mxGraphModel dx="1055" dy="752" grid="1" gridSize="10" guides="1" tooltips="1" connect="1" arrows="1" fold="1" page="1" pageScale="1" pageWidth="827" pageHeight="1169" math="0" shadow="0">
      <root>
        <mxCell id="0" />
        <mxCell id="1" parent="0" />
        <mxCell id="log5ZWfxuPlk_ODUvEIK-1" value="" style="sketch=0;html=1;dashed=0;whitespace=wrap;fillColor=#2875E2;strokeColor=#ffffff;points=[[0.005,0.63,0],[0.1,0.2,0],[0.9,0.2,0],[0.5,0,0],[0.995,0.63,0],[0.72,0.99,0],[0.5,1,0],[0.28,0.99,0]];shape=mxgraph.kubernetes.icon;prIcon=api" vertex="1" parent="1">
          <mxGeometry x="621" y="460" width="103" height="88" as="geometry" />
        </mxCell>
        <mxCell id="log5ZWfxuPlk_ODUvEIK-22" style="edgeStyle=orthogonalEdgeStyle;rounded=0;orthogonalLoop=1;jettySize=auto;html=1;entryX=0.607;entryY=-0.001;entryDx=0;entryDy=0;entryPerimeter=0;fontSize=14;strokeWidth=2;" edge="1" parent="1" source="esWYbgThciqDKY06iQxo-8" target="BrEGvM_AOv6z0KiBeLP8-72">
          <mxGeometry relative="1" as="geometry" />
        </mxCell>
        <mxCell id="esWYbgThciqDKY06iQxo-8" value="" style="whiteSpace=wrap;html=1;aspect=fixed;fillColor=none;strokeWidth=2;" parent="1" vertex="1">
          <mxGeometry x="504.5" y="42.87" width="194.26" height="194.26" as="geometry" />
        </mxCell>
        <mxCell id="log5ZWfxuPlk_ODUvEIK-7" value="" style="rounded=0;whiteSpace=wrap;html=1;fontSize=14;strokeWidth=2;fillColor=none;" vertex="1" parent="1">
          <mxGeometry x="511" y="150" width="180" height="80" as="geometry" />
        </mxCell>
        <mxCell id="BrEGvM_AOv6z0KiBeLP8-72" value="" style="whiteSpace=wrap;html=1;fontSize=15;fillColor=none;dashed=1;strokeWidth=6;container=0;" parent="1" vertex="1">
          <mxGeometry x="170" y="280" width="680" height="340" as="geometry" />
        </mxCell>
        <mxCell id="-5DbrtkIQYTFgWVI7A-K-11" value="" style="shape=image;html=1;verticalAlign=top;verticalLabelPosition=bottom;labelBackgroundColor=#ffffff;imageAspect=0;aspect=fixed;image=https://cdn1.iconfinder.com/data/icons/social-network-15/512/dropbox-128.png" parent="1" vertex="1">
          <mxGeometry x="571.2700000000001" y="55" width="60.71" height="60" as="geometry" />
        </mxCell>
        <mxCell id="log5ZWfxuPlk_ODUvEIK-11" style="edgeStyle=orthogonalEdgeStyle;rounded=0;orthogonalLoop=1;jettySize=auto;html=1;fontSize=18;strokeWidth=2;" edge="1" parent="1" source="-5DbrtkIQYTFgWVI7A-K-13" target="BrEGvM_AOv6z0KiBeLP8-18">
          <mxGeometry relative="1" as="geometry" />
        </mxCell>
        <mxCell id="log5ZWfxuPlk_ODUvEIK-12" style="edgeStyle=orthogonalEdgeStyle;rounded=0;orthogonalLoop=1;jettySize=auto;html=1;fontSize=18;strokeWidth=2;" edge="1" parent="1" source="-5DbrtkIQYTFgWVI7A-K-13" target="BrEGvM_AOv6z0KiBeLP8-19">
          <mxGeometry relative="1" as="geometry" />
        </mxCell>
        <mxCell id="log5ZWfxuPlk_ODUvEIK-13" style="edgeStyle=orthogonalEdgeStyle;rounded=0;orthogonalLoop=1;jettySize=auto;html=1;entryX=0.5;entryY=0;entryDx=0;entryDy=0;entryPerimeter=0;fontSize=18;strokeWidth=2;" edge="1" parent="1" source="-5DbrtkIQYTFgWVI7A-K-13" target="log5ZWfxuPlk_ODUvEIK-1">
          <mxGeometry relative="1" as="geometry" />
        </mxCell>
        <mxCell id="log5ZWfxuPlk_ODUvEIK-17" style="edgeStyle=orthogonalEdgeStyle;rounded=0;orthogonalLoop=1;jettySize=auto;html=1;entryX=0.5;entryY=0;entryDx=0;entryDy=0;entryPerimeter=0;fontSize=18;strokeWidth=2;" edge="1" parent="1" source="-5DbrtkIQYTFgWVI7A-K-13" target="log5ZWfxuPlk_ODUvEIK-16">
          <mxGeometry relative="1" as="geometry" />
        </mxCell>
        <mxCell id="-5DbrtkIQYTFgWVI7A-K-13" value="" style="sketch=0;aspect=fixed;html=1;points=[];align=center;image;fontSize=12;image=img/lib/mscae/Docker.svg;" parent="1" vertex="1">
          <mxGeometry x="444.93" y="300" width="136.07" height="109.39" as="geometry" />
        </mxCell>
        <mxCell id="BrEGvM_AOv6z0KiBeLP8-62" style="edgeStyle=orthogonalEdgeStyle;rounded=0;orthogonalLoop=1;jettySize=auto;html=1;dashed=1;fontSize=15;strokeWidth=2;" parent="1" source="-5DbrtkIQYTFgWVI7A-K-20" target="-5DbrtkIQYTFgWVI7A-K-24" edge="1">
          <mxGeometry relative="1" as="geometry" />
        </mxCell>
        <mxCell id="-5DbrtkIQYTFgWVI7A-K-20" value="" style="shape=image;html=1;verticalAlign=top;verticalLabelPosition=bottom;labelBackgroundColor=#ffffff;imageAspect=0;aspect=fixed;image=https://cdn3.iconfinder.com/data/icons/inficons/128/github.png" parent="1" vertex="1">
          <mxGeometry x="259.53" y="27" width="88" height="88" as="geometry" />
        </mxCell>
        <mxCell id="log5ZWfxuPlk_ODUvEIK-23" style="edgeStyle=orthogonalEdgeStyle;rounded=0;orthogonalLoop=1;jettySize=auto;html=1;entryX=0;entryY=0.5;entryDx=0;entryDy=0;fontSize=14;strokeWidth=2;" edge="1" parent="1" source="-5DbrtkIQYTFgWVI7A-K-22" target="-5DbrtkIQYTFgWVI7A-K-20">
          <mxGeometry relative="1" as="geometry" />
        </mxCell>
        <mxCell id="-5DbrtkIQYTFgWVI7A-K-22" value="" style="sketch=0;html=1;dashed=0;whitespace=wrap;fillColor=#2875E2;strokeColor=#ffffff;points=[[0.005,0.63,0],[0.1,0.2,0],[0.9,0.2,0],[0.5,0,0],[0.995,0.63,0],[0.72,0.99,0],[0.5,1,0],[0.28,0.99,0]];shape=mxgraph.kubernetes.icon;prIcon=user" parent="1" vertex="1">
          <mxGeometry x="130" y="47" width="50" height="48" as="geometry" />
        </mxCell>
        <mxCell id="log5ZWfxuPlk_ODUvEIK-18" style="edgeStyle=orthogonalEdgeStyle;rounded=0;orthogonalLoop=1;jettySize=auto;html=1;entryX=0.413;entryY=-0.003;entryDx=0;entryDy=0;entryPerimeter=0;fontSize=14;strokeWidth=2;" edge="1" parent="1" source="-5DbrtkIQYTFgWVI7A-K-24" target="BrEGvM_AOv6z0KiBeLP8-72">
          <mxGeometry relative="1" as="geometry">
            <Array as="points">
              <mxPoint x="450" y="220" />
              <mxPoint x="450" y="279" />
            </Array>
          </mxGeometry>
        </mxCell>
        <mxCell id="-5DbrtkIQYTFgWVI7A-K-24" value="" style="shape=image;html=1;verticalAlign=top;verticalLabelPosition=bottom;labelBackgroundColor=#ffffff;imageAspect=0;aspect=fixed;image=https://cdn1.iconfinder.com/data/icons/media-player-long-shadow/50/Repeat-128.png" parent="1" vertex="1">
          <mxGeometry x="259.53" y="181" width="88" height="88" as="geometry" />
        </mxCell>
        <mxCell id="-5DbrtkIQYTFgWVI7A-K-26" value="&lt;font style=&quot;font-size: 14px;&quot;&gt;Push to Main&lt;/font&gt;" style="text;html=1;strokeColor=none;fillColor=none;align=center;verticalAlign=middle;whiteSpace=wrap;rounded=0;fontSize=16;" parent="1" vertex="1">
          <mxGeometry x="192" y="37" width="60" height="30" as="geometry" />
        </mxCell>
        <mxCell id="-5DbrtkIQYTFgWVI7A-K-27" value="New push has happened" style="text;html=1;strokeColor=none;fillColor=none;align=center;verticalAlign=middle;whiteSpace=wrap;rounded=0;fontSize=14;" parent="1" vertex="1">
          <mxGeometry x="216" y="127" width="80" height="40" as="geometry" />
        </mxCell>
        <mxCell id="-5DbrtkIQYTFgWVI7A-K-31" value="CI/CD" style="text;html=1;strokeColor=none;fillColor=none;align=center;verticalAlign=middle;whiteSpace=wrap;rounded=0;dashed=1;fontSize=15;" parent="1" vertex="1">
          <mxGeometry x="379" y="194" width="48" height="20" as="geometry" />
        </mxCell>
        <mxCell id="BrEGvM_AOv6z0KiBeLP8-13" value="Droplet/instance" style="text;html=1;strokeColor=none;fillColor=none;align=center;verticalAlign=middle;whiteSpace=wrap;rounded=0;fontSize=17;" parent="1" vertex="1">
          <mxGeometry x="578" y="12.870000000000001" width="60" height="30" as="geometry" />
        </mxCell>
        <mxCell id="BrEGvM_AOv6z0KiBeLP8-68" style="edgeStyle=orthogonalEdgeStyle;rounded=0;orthogonalLoop=1;jettySize=auto;html=1;exitX=1;exitY=0.5;exitDx=0;exitDy=0;exitPerimeter=0;entryX=0;entryY=0.5;entryDx=0;entryDy=0;entryPerimeter=0;fontSize=15;strokeWidth=2;" parent="1" source="BrEGvM_AOv6z0KiBeLP8-18" target="BrEGvM_AOv6z0KiBeLP8-19" edge="1">
          <mxGeometry relative="1" as="geometry" />
        </mxCell>
        <mxCell id="BrEGvM_AOv6z0KiBeLP8-70" style="edgeStyle=orthogonalEdgeStyle;rounded=0;orthogonalLoop=1;jettySize=auto;html=1;exitX=0.75;exitY=0;exitDx=0;exitDy=0;exitPerimeter=0;fontSize=15;strokeWidth=2;dashed=1;entryX=0.078;entryY=0.643;entryDx=0;entryDy=0;entryPerimeter=0;" parent="1" source="BrEGvM_AOv6z0KiBeLP8-19" target="log5ZWfxuPlk_ODUvEIK-1" edge="1">
          <mxGeometry relative="1" as="geometry">
            <Array as="points">
              <mxPoint x="380" y="430" />
              <mxPoint x="600" y="430" />
              <mxPoint x="600" y="517" />
              <mxPoint x="629" y="517" />
            </Array>
            <mxPoint x="672.5" y="450" as="targetPoint" />
          </mxGeometry>
        </mxCell>
        <mxCell id="log5ZWfxuPlk_ODUvEIK-14" value="" style="edgeStyle=orthogonalEdgeStyle;rounded=0;orthogonalLoop=1;jettySize=auto;html=1;fontSize=18;strokeWidth=2;" edge="1" parent="1" source="BrEGvM_AOv6z0KiBeLP8-19" target="log5ZWfxuPlk_ODUvEIK-2">
          <mxGeometry relative="1" as="geometry" />
        </mxCell>
        <mxCell id="BrEGvM_AOv6z0KiBeLP8-19" value="" style="sketch=0;points=[[0,0,0],[0.25,0,0],[0.5,0,0],[0.75,0,0],[1,0,0],[0,1,0],[0.25,1,0],[0.5,1,0],[0.75,1,0],[1,1,0],[0,0.25,0],[0,0.5,0],[0,0.75,0],[1,0.25,0],[1,0.5,0],[1,0.75,0]];points=[[0,0,0],[0.25,0,0],[0.5,0,0],[0.75,0,0],[1,0,0],[0,1,0],[0.25,1,0],[0.5,1,0],[0.75,1,0],[1,1,0],[0,0.25,0],[0,0.5,0],[0,0.75,0],[1,0.25,0],[1,0.5,0],[1,0.75,0]];outlineConnect=0;fontColor=#232F3E;gradientColor=#F34482;gradientDirection=north;fillColor=#BC1356;strokeColor=#ffffff;dashed=0;verticalLabelPosition=bottom;verticalAlign=top;align=center;html=1;fontSize=12;fontStyle=0;aspect=fixed;shape=mxgraph.aws4.resourceIcon;resIcon=mxgraph.aws4.managed_service_for_prometheus;" parent="1" vertex="1">
          <mxGeometry x="320" y="460" width="80" height="80" as="geometry" />
        </mxCell>
        <mxCell id="BrEGvM_AOv6z0KiBeLP8-24" value="Grafana" style="text;html=1;strokeColor=none;fillColor=none;align=center;verticalAlign=middle;whiteSpace=wrap;rounded=0;fontSize=17;" parent="1" vertex="1">
          <mxGeometry x="209" y="540" width="60" height="30" as="geometry" />
        </mxCell>
        <mxCell id="log5ZWfxuPlk_ODUvEIK-3" value="" style="edgeStyle=orthogonalEdgeStyle;rounded=0;orthogonalLoop=1;jettySize=auto;html=1;fontSize=14;strokeWidth=2;" edge="1" parent="1" source="esWYbgThciqDKY06iQxo-1" target="esWYbgThciqDKY06iQxo-8">
          <mxGeometry relative="1" as="geometry">
            <Array as="points">
              <mxPoint x="490" y="104" />
              <mxPoint x="490" y="104" />
            </Array>
          </mxGeometry>
        </mxCell>
        <mxCell id="esWYbgThciqDKY06iQxo-1" value="Manages droplets and&#xa;infrastructure code" style="shape=image;verticalLabelPosition=bottom;labelBackgroundColor=default;verticalAlign=top;aspect=fixed;imageAspect=0;image=data:image/png,iVBORw0KGgoAAAANSUhEUgAAAN0AAADkCAMAAAArb9FNAAAAxlBMVEX///8Sfv8RWcwAeP8MVso7feQSgP8AdP8Adv8Aev+cwf8AS8kRV8kAU8sATMkAc/8AUMorgfPV3vMbhP/h6PcXXs/S4/9jof+Quv+xzv/u8/sAR8i4yOzr8//e6/8Sefhvkdtvp/9JlP89j//A2P/J3f+Yv/+pyf9Umf/W5v99r/+kuedBc9Muif/K1vERYthdhdiEs/+asOUsc96vweohZdLB0O8Rb+o1bNFPe9WbseWJpeFrpv8AVtose+obceZ6md48fuMBVYvzAAAMdklEQVR4nO2deV8byRGGV4dHAh3AyhyWIrDNaRKWJY5j78YB5/t/qcwMCKTpo57q6R6J/fn5G3r09vVWVbdGv/zyk5+8Si6n6/4ETg7OajZwPun1L6N8lOhMP+zsHM5rNDC/6rVarf7NebSPFI/tTqfV2uofBTdwt7PVKqnXRyk4n/QfP1qn9S6ogXf5fy7Y6l9E/ni1mB/uPH+0Vu/jsbqBT6e91jL9rO4SjsfRYk49df3OtW7nm35Y1Vb20ZW+j1JwlvWrH62zpdn5tvsdQ1zRR3fJPjLm+KPZ76qd7/zG6JxFHwUu4Xhc97Ycn62Hdr751Y7j/8s2Tj8lV+DmsmObU4up1ZPd4ajv6pyFvg/rCl4OTq2T8gVp51t2ARed/nZDclaYf/fNqUXXe9zBsWLNPlpD8HIhzalHtnrX9v/P4zbUQEHTwYvFBVzY3WF7S56US31UI8BT8/aKzakneqcHlQbcLuCiueDljs+pJ1an1vxQ1TlPhAR4eshGZ7AcF5+pO+epjR3HEo5HNdzF9G8WxnUR0DuPdLaSBi+2cJcxuR//+tTIdrA62xKOx7YvNPFq2/vSHcRQl+v7niZ40W90T2R7n7vtdiR1+RJOELysJKgqJp+Hubho6vIlPIkdvIjhrovsfr/QFlNd7jBXbyNqU4QmFW35gmu3o6vLA7xoqS0Nd01tk88LbZHVRUttp9eB7pu7wP6wnUpdnNT2UhXuLrE0KdOoy5dfzdRWTFCptiTqWp1Ojbp8noMFPvbJBVKry7L/hm+eF4EDN1m4QFp1WfYwnIWrC/sc5qRMoy57yPtw0LC6m882bdHVZVnZh82qm9wbCy6FumJSPrbaoDrHpIyuLnt20ubUZXvfnNpiqlvuw8bUWVwghbps8mU5AmpGndUFrOrCKw/lcx5W+rARdb4FV1X3LjDfKJ9T7cMG1GUuF1ii235uNlidpQ/TqxMnZcHuP5+bvQubmnk+NTSaTa1uIk/KgvFLOH8cFOBNHvZNcYnVgQVXMvp9qd2P+oTRWHBNqBNc4IXZb0vtnmlXXu4CrggonTq04Eq6X1Ya1mpzb1rJ1NFJWbD795WGj1T7yn3bsuASq/N0qEXdaolgrpmak31Pw6nU7SnEjd5XWj5U7Csbr272a6Xlc4UpeNWNqy1zvLarUNf9ZjSdRVJnzAqOd/oo1I3/ZTS9zVeeV117Flr084e7CnUjs+1pLHVLEZ6OU+9DubrRD0vjH/C+4lfXblsaBxz4Vz5XZ63KfcKlUkHd+G9B6oRdG6vr/sPavH9mcHWWLQswFzoXq3N07iVdedLMNOyGIEVLfOwcD6ALT1IXZArSQ6m60X8cD7iGwaakbjl1pIjVD6rOWek/hvuKqC7AFG6kh0J13T+cj/gYSZ3NT/0ciB0L1Y3/7XzGGQs2ZXVqU5CDeKauu+95CAs2ZXUOz3ECEjCmbte1pxSwJFZWpzUF8FymzhvkSpb6yOK4x4PSFECnvhGf2a6UwkxYEjuRn6TKFEAx/IaIaw9+8z6HJbGZXL9RmYIcA2b3ZGJ695SCCVHXmmjq+CJCdlA+UF7qRZf+KTyJ1fInX8QnKUxBXg7ZQ/09pWDKLE9+Gs8UwFbGhg5sZSyJjWkKsh3AoRP2lAKwCNjzsCmAp6Ghq5TX7YjxbMlEfhrMFIAdnCA7qJTXg59WdKfl6K76NGYKcm9mt0Qc7E14AiovBVeWvAJYCRk7svuBOpMlsZl8aoFMAdjBLYtT2C4GT2LlsJZkCnMwdEQbdyCWxGayowNTAHbwle0pZnndDkxi5dAPmAJwV6ItVwfF0ZNY4ujSNiZv0HDo4J5SwJJYELeLpgCyA+TkmmNDsNQL5DRPyhRkO8iYk6tKHVco2ASOLpgCsQMiTlemgiexYPC8fSpnB3DoWODwDEtiQY7uNQVgB8zJvaUwE3ghTXZ0rymAJ7ChU15FgCexwNE9sW00O/CU1+18ZwdCtUwB5FpEWz507vK6HbmwXwIc3bnggR3AoZNKYSbsJBY4unOzlqcHi59DjpzgSWz4mYIcMsChCzkuhEkscHSHKRA7QOKE8rodeBIrO7rDFOR5CZ0clMJM4EksyNEHtpkD7IANHSqFmcDrxLKjW1e9vGvBoUOlsJDeLZGr7rYdW3aclHtKARJHHN1iCuAoDWkLv1MIrxOHmEI8Owi6+sM+wuPnkAfPqMYBO0DaAq9tlbAkNsQU5C6jqy5sTymASSzJ0VeXfjQ7UJTCTOB1YnnwKqYg2gF1ckUpzAQmsbKjr5aPQHYAh67GDXp8EgscfcUU5OzgBN4KU976qQCTWODoS58D2AErp4Re413ATmKJoy/dLAQ+irTV21MK2Eksufb3/rlNsTVqB86bphSYxJIcfWEKwA6QNs9NUwy9b8tNQbYDOHTqUpjJNdtXZEdfZAryNwPo0NXcUwrod2L36JmCmB1QJ1eW1+3ArykARy9NQbZQHITV3VMK6HftZUcvMwXZDujQDaK8f5WJA45eBoViO9TJg0phJvQ7sSDNm5KZQIdOW163w64TE0ff/TOiHQR+VcwAJrHy4HX3P8k7MNIGbppS4A0PchQbbeiCS2Em7CSWOPqe2AbTVufrtVXo62VERxfVYScPKq/boUmseI4uq4NOHlhet0O/ay85uqQOD11ged0OTWIlRxfVwaGrvsihJjCJlUxBUkeHLuKeUkC/Eyt94devDttBcHndAd1X/KYgjR3TVqe8bgcmsYKj+9XhocM3TSn0O7H+NE9QB4dO/8VTEfidWL8peNXhoatVXrdDk1jv5Sq/OmoH9UthJvTNR77B86nj5ZR65XU79IVxPkf3qqNDF6EUZvKWvhvI4+g+dXToQt9wIkCTWI+je9TRckqcUpgJTWI9ju4bOzp0s0Q/RcTE+RzdrQ7bQYTyuh2axLod3aMOjlysUpgJfmGcM0d3quNDp79pSqFJrNPR3ero0AW/8UqGJrFOR3epw04e/rYywISagn3whreOKyLYySOV1+3gFzvZHH3YPnGJw0MXsRRmMqXBpunow/bXzHW5Bzt51FKYCU1iDUcffm15Li7Rt2lFK6/boUls5Y0hw1vXpCy7gtpB0j2lgL4wbtnRiwXnvXEGtcUuhZngt54/m8Jw6F5wyqGDX7quART37OjDW9+CK/+SDl30UpgJfut5OXhd74J7FIftIGp53Q49iS0c3ecCL+qok7cHycXxJLZ1P3yQJmVLM3QJSmEmNIltTSbgam6mGLrke0oBPIklZNlXz2vDV0lSCjOp90MfK+JObmu9JzkF09DfAqtqa9HwsqTuTVMKvE4saFNMylJcmlKYCU5ifeJOVANX8/a6CnoSG09bulKYCU5iHdryyFIpLk153UGdqaldcE9j15w4nMTaxGlc4JnG9pQCcJnNoU3nAs+ME5XX7eC3nld4CJiU7cSlMJPQn+76X8CsbCcuhVkIjMbeBKlLWF63E/jTXWHqEpfCTMJ+uitQXbybphScxNZXl7wUZoKT2PrqZg3vKQWKn9ippy5xed1OUBIboq6BUpiJ6qe7aqlrfE8p0Px0Vw11a9hTCkKS2AB1sW+aUgKSWL26BsrrdgKSWL26hkphJvgkto66+DdNKfynu4LVNVJet8N/uitYXYqbphR1EqtV12ApzESdxGrVNVkKM0k9dmlumlK0SaxSXaOlMBN8EhumLtVNU4oyidWpW+ueUqBMYnXqPD8Z1hC6JFalrvFSmIkuiVWpS3jTlAJfGBeiLvWtMIIqidWoa7i8bkfz+9MqdU2X1+1okliFurWUwkw0SaxC3VpKYSaK35/WqGu+vG5HcRLL1a2pFGaiOInl6pq5FUbgSSxWt7ZSmMk7PHhY3WAz9pSSjG4sUF130MyFPshFn+0sTN1ue60FB5Pphx7RR9SNxuvNyK18+ghWn6yuO/t9Q4yuwpm8/ER1428b4wQGR9L0FNTtdtd1aoCYH/qnp1fdaLCBC26Vg1OfPo+6fMGtsaqOuWy5ixFudeNvG5HOAe52XMvPpW53Q/IdxPzKsb3Y1XUHP9b9iXWcT6zuYFPXnf3xGhbcKtsdy/KzqBvvr70mG8L02lx+hrrRoOn7e9E4NoKzirru7P1mhl2ManC2oi7PczY37GIcreRGy+p22xsddjHmhzs2daPZxoddjKXgbKGuO9jQPCeEy4U7PKkbf3ktYRfj7jF4KdXtjl5R2MU4vtp5VNed/fjrTMoXzvLg7M1o8ArDLsZ273P7VYZdjOlfwOF+8pP6/B8VFziIi4C4LgAAAABJRU5ErkJggg==;" parent="1" vertex="1">
          <mxGeometry x="400" y="78.51" width="47" height="48.49" as="geometry" />
        </mxCell>
        <mxCell id="log5ZWfxuPlk_ODUvEIK-6" style="edgeStyle=orthogonalEdgeStyle;rounded=0;orthogonalLoop=1;jettySize=auto;html=1;entryX=1.003;entryY=0.333;entryDx=0;entryDy=0;entryPerimeter=0;fontSize=14;strokeWidth=2;" edge="1" parent="1" source="esWYbgThciqDKY06iQxo-2" target="esWYbgThciqDKY06iQxo-8">
          <mxGeometry relative="1" as="geometry">
            <Array as="points">
              <mxPoint x="727" y="108" />
            </Array>
          </mxGeometry>
        </mxCell>
        <mxCell id="log5ZWfxuPlk_ODUvEIK-25" style="edgeStyle=orthogonalEdgeStyle;rounded=0;orthogonalLoop=1;jettySize=auto;html=1;fontSize=14;strokeWidth=2;endArrow=none;endFill=0;dashed=1;" edge="1" parent="1" source="esWYbgThciqDKY06iQxo-2" target="log5ZWfxuPlk_ODUvEIK-24">
          <mxGeometry relative="1" as="geometry" />
        </mxCell>
        <mxCell id="esWYbgThciqDKY06iQxo-2" value="" style="shape=image;verticalLabelPosition=bottom;labelBackgroundColor=default;verticalAlign=top;aspect=fixed;imageAspect=0;image=data:image/png,iVBORw0KGgoAAAANSUhEUgAAAOEAAADhCAMAAAAJbSJIAAAAk1BMVEX///8AgP8Aef8AfP8Afv8Ad/8Aev8Adf/0+//7/f9kqf/c7v/S6P/8//+y1P/u+P+Hu/+tzv+92/97tP/Y5v8QhP8Ah/9epf9srf8giv/G3f9Lmf9Xn/8Acv/V6f/l8f+dx/+Fuv8sj/+Twf/H3P/L5P8Ab/87lP92r/9Yov+ky/+x0v/Q4f/g8P9Mmv/Y7P8Aa/+0s9KFAAANuklEQVR4nO1dCZeiuhKWkARcUWlQW1tcxsFlWu///3WPVAiLBHCBhpmX75x7zly1k3xJpVKpVCqdjoKCgoKCgoKCgoKCgoKCgoKCgoKCgoKCwv8ZrMN0sreP897c3u4v00G36QZViO73yPapQQiiVA9AKUWEGNp1O/KGTTfufXij48JAFGtZYErI4njxmm7iO7AuK43oEnIxS51oy/PfSnI9x0g2dtmx1FfTphv7Aqa+UTh6aZLE3ZhNt/g5jHzyyPAlgJy/ieNh+ZB43nN0z003/EFYPeMFfgxkcWi68Y9gotHX+GlsPtqtF1XrRF7mx0Ddlg/jp/P6AIbDSPdNkyjC3niTHwO5tlZSu7P3JFSALr6bpiKHuXxXQgWw08rJ6C0et2FKKeqfTdPJwnNeXATlIK2zVD23UoLBZGzZKFqLigkGaNVc7PrVzUEBrLVp27iqSoumKC7a4+MYP7IOYvDOMBBC9UeEms6aJiYwQuXsCFra5+naM03LO4w2xx2RO29SIJumqXF4pWOh7/YZtdH93O5omXDTdmibZbGWIc52nfOX6+2i2BWAd21wq+4LJ2GJc6I7WRT/+fbHeOTCK2qhru9L9eGlcMNF8sb/57AqkFF0sh4ooWsX6By8rJ1BCQr0KMaXBwv5dPO7CY1qbX8phrvc7n9ml2ctczsKL5pVNpvcWUhXT1kkx1yKpFEf4zBfuHpPFrXNpejW0vQHcc4bwqcJBhTzyiKPTuc64OY0iq5eKKyXM4p4V3m7H0aeItX9l3YF1xyN2qDttspRpM5rO7s8P4E+r7jdD6Of0+fk1SVsmjMV3UcMhzowlptb9PUun8tLfLnL3kXOau+87rI25WOoN7QVXstd+GTyRpk5FoTTjF2zl4oUfk2PhjDlPjujGW0qF9I3LeWNtNvouKI2PwVTKqTvLs+WU0epr0Gu2unmzWLn0iXIqKLFz0K+VpB3z/4+pR1HmpiIS2kk1+ntcqWzmzawhTKlVncF+4CeTEybMNz6MoIaed++usjMeexX0OQn8aeuhnhSHe3+/BnGRMaQ2u8X3JVvOn/+aF+qSlEVCuEk0zX6z/tNjzKFQD4qKNmW9R35U0HJz0Ha07iKQ02p4dbABuoqY+hUsVWV+kYqkf/nIF3wF1VEM0mtmretwacx9AnNAFXC8EPK8Mej3Yab7TiD7b6KnWpLGNaIf59hS+ZhjWiLLq0PbVkP60NbbJr6ID0raMAurQ05e4s2Bbm9ie+27A9rg3Tj2cQevzbIp2FjB2zVYyg9dUXvHIa0DFJHlEYGTbdLhsGpl8WszLUr3Xc24/MuxdTQszBKbJOB/EDr+jNNfhLSg42yoyn5sUVL7e5XGPblx9zG7Yfa/BxeYXiSDiHetXO9f4Hhp/zgvJkD0nI8z7CbE1CDWmp2P89Qum9q0mSzXB1H0DO+0qcZXnIChprb36cuO+FM4NKzDNe5wbhNhUQFDJPNeJehlXe9jx5r5pGPShnmRNIEMJrb/FbJMP8G6hthcm+jQoa3/Auaer9+JnmojuEU54f8V3Cs/DIqY2gX3btpTJF2KmM42BXc7mv2gl4lDL2iO0FNe6AqYGhuizOhGM1apG8zPMxR8R1L0vCZ2itWW3TCYv0Z78oySelNOy8sl8YOGBpY3sMkcvw0E8tb/5nYV5eU3wNu3pXfTSKQWScJrZf+nqPTw5qOHrjlrDUW+5wL885ypvKrT9LQQynacpM7gnV3ZqS/yRA1acxIUTFD1Jp0AxGqZfjS7beaUSlD1EKClTJEszY6SCtkaDTntyhCdQybttXyUBVDrLUuRVSIihgiv0GvRTEqYYhJ69b5GFUwRLuWmaIpvM9Qp5XEp9aGdxliY9baGchhORQnkZNWIYehTpetDLdIwuzNUjjJVzUpQ0pLYzT+HmQZYuLYLZfPp3DHUCdkNW21fnkaMUOsI30xH/1b9Dosgwl7HQERulgeL+0MInkT+9n8ON5c/nitTRasoKCgoKCgoKCgoKCgoKDQTvQFviVhjtN98RUX67x5OPDsxipJf+SN9vZxe67ZVWok4J42qWRFJ4MaRWkQ1zqhXw9eFTB/BxXghHPGPO8MQqlOkaHP6wzQSztnKbnGozZigWlFcTuQFhc/FuJqsiBSN2Y4cROPBuikV1+AV9YDvRSytGWBgwU3cHl4Pc/yaw7W60FRK4FhlNp0OLt7FIHWd/IbOmcDiFhrTMNhvJSNIWTh0WEMf30hahSluE6NobmjYb00eq7EqOtmDFTUYw/1Xnfi3dDwsaXu1aCk6IWJA6XU4Acwn6jkwnWSYdcHghgtZuOxfQ2DaOvK283KRlwuTW+y5DGh4dwabo7FT2fetnYoXI8xDKV0DoHd5PrJe8/bc/HB9ZzPAMM4CdlUg7n19C2OZ8aQ3zJMir8HUqvX89LDHcOOBXc7pNc4htZ6kKc4swyH1m3gmdFakxhDSF5LUyvtEB6MSl2DNr8H/TsBMvuZjwLBG/StzEzqeoO1aOo9w86BCSokLTJPq9XqKtro7XfEIMQfdcbX1QoU7jT4x3XT6XwvVz5r9SL4/ZKXZe3ZQ9UG9fdegiGMIeuMzLVQj52Rx5H5w8sV8z+Pu5R/pC8nMZ/uZMU+I4tjuKB2l0ETjpbtBp8i/yxn2GGNhevhlhboVxIyvDhcDWHSO1GMDfYnEwNDeMjtK9TDOPjiF/v1RAuVFkbaKGYIYwjXtTMPHkA6DBqKznpHxJ874bh6S/ERiSJuBuIhHkzDHjODlmBnQcXCZ0oZnqEtVpjTl3KGidcpgQ3kD2StYrd2bonru4QxTL2uw4PXozE0WYR/9tLk0I0/niYWS0yg7Z4Tn6ziMLXfNPkmLw/EuUtuTJlFlmW4hmXQSzEE84aZPCJAO83wbgwvUI+OxK+tJEN4ekeS55RdkeXxGwdRGWfwtemEc1fUzxMn86T3QS38Z8ZngiFFCL5lIXJZhvArlogiZshvP5LVeXo+oSzDbz8xD/8EMy0gjDX7Mt2AjkSbpJSyVF6y3M4sARZMRG4qIX/DK8PsET3IZE7ZR1dWImRF/2YX+tBsMp2sWNmQ4DdkiO3R6Aii6nQlDLtQxmeS4YYVERodPDVHimHnXpcGpsAOJGnI0lzwusUYAhNJgOxBMIfKuGx2PjXq3MK8Q+EzbKzlXCVZC4r5K4mQahRFDPEgkjvjkMvwkGTIZCS6rArFFTPsrMW957VodylDMbZDNoRRuJEH7/HA5RQn/IiJH4XzcXMXPgMJc5vdNQWGIscES89JzxKGFvsVu3AUMYRPqNhYmaScYWfYsbyPj75lMYlzO09IaZ9VdpcmlM1RPPv4w/DBJgQSFp7p9T8+PND/Rj9kiMOWsrRogY7NMuQLYlLTcAGKliFWXBnD0coN1kPi+No9wzJNA0zvrgNB3iFMOMBe4EI8mO/04BPNZy2NGIr7SWw+6baEIWSEY1ksI4ZMSBKVzkoZmleh73GKYbxaZHMGidWCVX9n/w39+ys2OkwZm4QbE65MBUORgXOUx5DNA8xmdcQQBCs2GldlDMXmSCDFkEfU5K/4wDAd6M0ZpoLm2A/m6atjDzMEFQR9HDGEqRHvz52yeQgLPiauiwnNSGmZ1cYMDnx3nQTMLH8Zw9+HGSQxcVyN1/Iow2/+OIGVZNiF1VBswgdGGUPQ7ae+aVkHO6Vp3FzLexlZ3tBwN21gs3mRuX3KrD+8OFimtd47jzPkuycEPRyvFjMojP8hf2pNxlAk1bcS1VgShnz3BHaAGEEQaz4RTMY1fuhky4ixx0LilP0WfAmiKx4PTOlSGUMefTX0Rle+YvJXXGOG0K/6btDtdNd8f37P8EDjycWy5omkObfMatGJdsDLaAfMFQbmzYDndESexLHBxu4GS3A4iNbui+18YN1EXtzrRQzxfLu15zNf4xoQh1Ul7NIT9DHaLXehqXnP0AO32+rya+TxavQN9LYrYyi8GGTXG+/tK057MdZQl3b2huZ6hvjn8Mqivu0Ph94lsCDB4mHjps+Zdp6CJipiqOmUeYRClUy1MFo3wdDSQu5Cbd8zBPUT9AH5/YtrY40u/IWDJLoUhiH2RAlbPna88hfYqLZwdSC2EMn2KXbDIr9G3HwLjDp/59DS1SIJjGZilid3T54bLQC6lKHYMLHdU/jgXNQdGYYl3sRZchnQ4QWwUWplgK3SmqZreYghRnQVv/idZNgxbS1YX7GOqL2UrIcs/TUWDOMm0p2jZaWUIe0RRrOUmWbH3xGffzOKr7XriPv3NoaQOtctYEgEDIMsTptkRRbzQ3xFnhZvcjyt5ps+aHtI3XT+TciXWJxN7uX4DXv8fbCT04P/xh7zMmgd8OqTO6++bwQ/CuTUwPP7KPZP36DsO8PZiPq/ewR+joyVOOiYugb8qGctg5r/C7SH+V9ARPTjhTdvIHDzundHFF34PPyfxMkCDBDrCot9n+gT83YYrHnx5mU7ty9WoHuDn8DfDsQ/YoiTGZlL9raxe/YmdWhjjcbz+XaSqLA7Hc+P7KzlxkrvilrC8u6bV4zp78gIAaOjwTcJ68GIhlZA0Esg+S3NoPYyYF+P/Mlh8GmD7qKN5wKoGGuNO4IojR08/xjWbnI/RP6hnLcRrJVYfDSd/GuTMMT0Gqw5iBio90/ekgAMD9PRtKVJGhUUFBQUFBQUFBQUFBQUFBQUFBQUFBQUFNqP/wHDW+WDgnWacQAAAABJRU5ErkJggg==;" parent="1" vertex="1">
          <mxGeometry x="755" y="40" width="95" height="95" as="geometry" />
        </mxCell>
        <mxCell id="esWYbgThciqDKY06iQxo-13" value="&lt;font style=&quot;font-size: 10px;&quot;&gt;Master node&lt;/font&gt;" style="verticalLabelPosition=bottom;html=1;verticalAlign=top;align=center;strokeColor=none;fillColor=#00BEF2;shape=mxgraph.azure.virtual_machine;" parent="1" vertex="1">
          <mxGeometry x="531" y="160" width="50" height="40" as="geometry" />
        </mxCell>
        <mxCell id="esWYbgThciqDKY06iQxo-14" value="&lt;font style=&quot;font-size: 10px;&quot;&gt;Worker node&lt;/font&gt;" style="verticalLabelPosition=bottom;html=1;verticalAlign=top;align=center;strokeColor=none;fillColor=#00BEF2;shape=mxgraph.azure.virtual_machine;" parent="1" vertex="1">
          <mxGeometry x="621" y="160" width="50" height="40" as="geometry" />
        </mxCell>
        <mxCell id="log5ZWfxuPlk_ODUvEIK-8" value="Docker Swarm" style="text;html=1;strokeColor=default;fillColor=none;align=center;verticalAlign=middle;whiteSpace=wrap;rounded=0;fontSize=10;strokeWidth=2;" vertex="1" parent="1">
          <mxGeometry x="561" y="128.25" width="80" height="21.51" as="geometry" />
        </mxCell>
        <mxCell id="log5ZWfxuPlk_ODUvEIK-9" value="&lt;font style=&quot;font-size: 18px;&quot;&gt;Cluster&lt;/font&gt;" style="text;html=1;strokeColor=default;fillColor=none;align=center;verticalAlign=middle;whiteSpace=wrap;rounded=0;fontSize=10;strokeWidth=6;" vertex="1" parent="1">
          <mxGeometry x="750" y="250" width="100" height="30" as="geometry" />
        </mxCell>
        <mxCell id="BrEGvM_AOv6z0KiBeLP8-20" value="Prometheus" style="text;html=1;strokeColor=none;fillColor=none;align=center;verticalAlign=middle;whiteSpace=wrap;rounded=0;fontSize=17;" parent="1" vertex="1">
          <mxGeometry x="333" y="540" width="60" height="30" as="geometry" />
        </mxCell>
        <mxCell id="log5ZWfxuPlk_ODUvEIK-27" style="edgeStyle=orthogonalEdgeStyle;rounded=0;orthogonalLoop=1;jettySize=auto;html=1;entryX=1;entryY=0.5;entryDx=0;entryDy=0;fontSize=14;endArrow=classic;endFill=1;strokeWidth=2;" edge="1" parent="1" source="log5ZWfxuPlk_ODUvEIK-1" target="log5ZWfxuPlk_ODUvEIK-24">
          <mxGeometry relative="1" as="geometry">
            <Array as="points">
              <mxPoint x="672" y="600" />
              <mxPoint x="900" y="600" />
              <mxPoint x="900" y="185" />
            </Array>
          </mxGeometry>
        </mxCell>
        <mxCell id="log5ZWfxuPlk_ODUvEIK-26" style="edgeStyle=orthogonalEdgeStyle;rounded=0;orthogonalLoop=1;jettySize=auto;html=1;entryX=1;entryY=0.5;entryDx=0;entryDy=0;fontSize=14;endArrow=classic;endFill=1;strokeWidth=2;" edge="1" parent="1" source="log5ZWfxuPlk_ODUvEIK-2" target="log5ZWfxuPlk_ODUvEIK-24">
          <mxGeometry relative="1" as="geometry">
            <Array as="points">
              <mxPoint x="508" y="600" />
              <mxPoint x="900" y="600" />
              <mxPoint x="900" y="185" />
            </Array>
          </mxGeometry>
        </mxCell>
        <mxCell id="log5ZWfxuPlk_ODUvEIK-2" value="&lt;font style=&quot;font-size: 18px;&quot;&gt;Web Application&lt;/font&gt;" style="outlineConnect=0;dashed=0;verticalLabelPosition=bottom;verticalAlign=top;align=center;html=1;shape=mxgraph.aws3.application_discovery_service;fillColor=#5294CF;gradientColor=none;" vertex="1" parent="1">
          <mxGeometry x="469.37" y="453.5" width="76.5" height="93" as="geometry" />
        </mxCell>
        <mxCell id="BrEGvM_AOv6z0KiBeLP8-18" value="" style="sketch=0;points=[[0,0,0],[0.25,0,0],[0.5,0,0],[0.75,0,0],[1,0,0],[0,1,0],[0.25,1,0],[0.5,1,0],[0.75,1,0],[1,1,0],[0,0.25,0],[0,0.5,0],[0,0.75,0],[1,0.25,0],[1,0.5,0],[1,0.75,0]];points=[[0,0,0],[0.25,0,0],[0.5,0,0],[0.75,0,0],[1,0,0],[0,1,0],[0.25,1,0],[0.5,1,0],[0.75,1,0],[1,1,0],[0,0.25,0],[0,0.5,0],[0,0.75,0],[1,0.25,0],[1,0.5,0],[1,0.75,0]];outlineConnect=0;fontColor=#232F3E;gradientColor=#F34482;gradientDirection=north;fillColor=#BC1356;strokeColor=#ffffff;dashed=0;verticalLabelPosition=bottom;verticalAlign=top;align=center;html=1;fontSize=12;fontStyle=0;aspect=fixed;shape=mxgraph.aws4.resourceIcon;resIcon=mxgraph.aws4.managed_service_for_grafana;" parent="1" vertex="1">
          <mxGeometry x="200" y="460" width="80" height="80" as="geometry" />
        </mxCell>
        <mxCell id="log5ZWfxuPlk_ODUvEIK-16" value="Logging" style="fillColor=#28A8E0;verticalLabelPosition=bottom;sketch=0;html=1;strokeColor=#ffffff;verticalAlign=top;align=center;points=[[0.145,0.145,0],[0.5,0,0],[0.855,0.145,0],[1,0.5,0],[0.855,0.855,0],[0.5,1,0],[0.145,0.855,0],[0,0.5,0]];pointerEvents=1;shape=mxgraph.cisco_safe.compositeIcon;bgIcon=ellipse;resIcon=mxgraph.cisco_safe.capability.logging_reporting;fontSize=18;aspect=fixed;" vertex="1" parent="1">
          <mxGeometry x="750" y="473.5" width="73" height="73" as="geometry" />
        </mxCell>
        <mxCell id="log5ZWfxuPlk_ODUvEIK-24" value="Database" style="aspect=fixed;perimeter=ellipsePerimeter;html=1;align=center;shadow=0;dashed=0;spacingTop=3;image;image=img/lib/active_directory/database_partition_4.svg;fontSize=14;strokeColor=default;strokeWidth=6;fillColor=none;" vertex="1" parent="1">
          <mxGeometry x="762.63" y="155" width="79.73" height="59" as="geometry" />
        </mxCell>
        <mxCell id="log5ZWfxuPlk_ODUvEIK-29" value="&lt;font style=&quot;font-size: 14px;&quot;&gt;Developer&lt;/font&gt;" style="text;html=1;strokeColor=none;fillColor=none;align=center;verticalAlign=middle;whiteSpace=wrap;rounded=0;dashed=1;fontSize=15;" vertex="1" parent="1">
          <mxGeometry x="131" y="100" width="48" height="20" as="geometry" />
        </mxCell>
      </root>
    </mxGraphModel>
  </diagram>
</mxfile>
